{"title":"Tarzan.2013.480p.BRRip.XviD.AC3-N3kr4","uid":10168926,"size":1781716632,"categoryP":"video","categoryS":"hd___movies","magnet":"?xt=urn:btih:65ecd8323b2deba4cac06ae2e679b62a8b58bd37&amp;dn=Tarzan.2013.480p.BRRip.XviD.AC3-N3kr4&amp;tr=udp%3A%2F%2Ftracker.openbittorrent.com%3A80&amp;tr=udp%3A%2F%2Fopen.demonii.com%3A1337&amp;tr=udp%3A%2F%2Ftracker.coppersurfer.tk%3A6969&amp;tr=udp%3A%2F%2Fexodus.desync.com%3A6969","seeders":1,"leechers":0,"uploader":"Falcon.G13","files":2,"time":1400383813,"description":"Tarzan (2013)\n 94 min - Animation | Action | Adventure - April 2014 (Greece)\n4.6 Your rating: -/10 Ratings: 4.6/10 from 3,900 users \nReviews: 18 user | 33 critic\n\nTarzan and Jane Porter face a mercenary army\n dispatched by the evil CEO of Greystoke Energies,\n a man who took over the company from Tarzan's parents, \nafter they died in a plane crash.\n &lt;a href=&quot;\nhttp://i.imgur.com/su8NT4z.jpg&quot; rel=&quot;nofollow&quot; target=&quot;_NEW&quot;&gt;\nhttp://i.imgur.com/su8NT4z.jpg&lt;/a&gt; &lt;a href=&quot;\nhttp://i.imgur.com/txkBgdT.jpg&quot; rel=&quot;nofollow&quot; target=&quot;_NEW&quot;&gt;\nhttp://i.imgur.com/txkBgdT.jpg&lt;/a&gt; &lt;a href=&quot;\nhttp://i.imgur.com/ES1GKvC.jpg&quot; rel=&quot;nofollow&quot; target=&quot;_NEW&quot;&gt;\nhttp://i.imgur.com/ES1GKvC.jpg&lt;/a&gt; &lt;a href=&quot;\nhttp://i.imgur.com/rcSDBjb.jpg&quot; rel=&quot;nofollow&quot; target=&quot;_NEW&quot;&gt;\nhttp://i.imgur.com/rcSDBjb.jpg&lt;/a&gt; &lt;a href=&quot;\nhttp://i.imgur.com/oFc1vWV.jpg&quot; rel=&quot;nofollow&quot; target=&quot;_NEW&quot;&gt;\nhttp://i.imgur.com/oFc1vWV.jpg&lt;/a&gt; &lt;a href=&quot;\nhttp://i.imgur.com/kfksIex.jpg&quot; rel=&quot;nofollow&quot; target=&quot;_NEW&quot;&gt;\nhttp://i.imgur.com/kfksIex.jpg&lt;/a&gt; &lt;a href=&quot;\nhttp://i.imgur.com/yNK2vfy.jpg&quot; rel=&quot;nofollow&quot; target=&quot;_NEW&quot;&gt;\nhttp://i.imgur.com/yNK2vfy.jpg&lt;/a&gt; &lt;a href=&quot;\nhttp://i.imgur.com/rJisQhA.jpg&quot; rel=&quot;nofollow&quot; target=&quot;_NEW&quot;&gt;\nhttp://i.imgur.com/rJisQhA.jpg&lt;/a&gt; &lt;a href=&quot;\nhttp://i.imgur.com/RtgRdw8.jpg&quot; rel=&quot;nofollow&quot; target=&quot;_NEW&quot;&gt;\nhttp://i.imgur.com/RtgRdw8.jpg&lt;/a&gt;\n\nGeneral\nComplete name :Tarzan.2013.480p.BRRip.XviD.AC3-N3kr4.avi\nFormat : AVI\nFormat/Info : Audio Video Interleave\nFile size : 1.66 GiB\nDuration : 1h 34mn\nOverall bit rate : 2 522 Kbps\nWriting application : VirtualDubMod 1.5.10.2 (build 2542/release)\nWriting library : VirtualDubMod build 2542/release\n\nVideo\nID : 0\nFormat : MPEG-4 Visual\nFormat profile : Advanced Simple@L5\nFormat settings, BVOP : Yes\nFormat settings, QPel : No\nFormat settings, GMC : No warppoints\nFormat settings, Matrix : Default (H.263)\nCodec ID : XVID\nCodec ID/Hint : XviD\nDuration : 1h 34mn\nBit rate : 2 194 Kbps\nWidth : 720 pixels\nHeight : 304 pixels\nDisplay aspect ratio : 2.35:1\nFrame rate : 23.976 fps\nColor space : YUV\nChroma subsampling : 4:2:0\nBit depth : 8 bits\nScan type : Progressive\nCompression mode : Lossy\nBits/(Pixel*Frame) : 0.418\nStream size : 1.44 GiB (87%)\nWriting library : XviD 64\n\nAudio\nID : 1\nFormat : AC-3\nFormat/Info : Audio Coding 3\nMode extension : CM (complete main)\nFormat settings, Endianness : Big\nCodec ID : 2000\nDuration : 1h 34mn\nBit rate mode : Constant\nBit rate : 320 Kbps\nChannel(s) : 2 channels\nChannel positions : Front: L R\nSampling rate : 48.0 KHz\nBit depth : 16 bits\nCompression mode : Lossy\nStream size : 216 MiB (13%)\nAlignment : Split accross interleaves\nInterleave, duration : 64 ms (1.53 video frames)\nInterleave, preload duration : 500 ms","torrent":{"xt":"urn:btih:65ecd8323b2deba4cac06ae2e679b62a8b58bd37","amp;dn":"Tarzan.2013.480p.BRRip.XviD.AC3-N3kr4","amp;tr":["udp%3A%2F%2Ftracker.openbittorrent.com%3A80","udp%3A%2F%2Fopen.demonii.com%3A1337","udp%3A%2F%2Ftracker.coppersurfer.tk%3A6969","udp%3A%2F%2Fexodus.desync.com%3A6969"],"infoHash":"65ecd8323b2deba4cac06ae2e679b62a8b58bd37","infoHashBuffer":{"type":"Buffer","data":[101,236,216,50,59,45,235,164,202,192,106,226,230,121,182,42,139,88,189,55]},"announce":[],"urlList":[]}}